<?xml version="1.0" standalone="no"?>
<!DOCTYPE svg PUBLIC "-//W3C//DTD SVG 20010904//EN"
 "http://www.w3.org/TR/2001/REC-SVG-20010904/DTD/svg10.dtd">
<svg version="1.0" xmlns="http://www.w3.org/2000/svg"
 width="500.000000pt" height="500.000000pt" viewBox="0 0 500.000000 500.000000"
 preserveAspectRatio="xMidYMid meet">

<g transform="translate(0.000000,500.000000) scale(0.100000,-0.100000)"
fill="#000000" stroke="none">
<path d="M2425 3726 c-58 -26 -95 -85 -95 -152 0 -44 12 -69 57 -115 26 -28
34 -43 31 -65 l-3 -29 -140 -6 c-311 -15 -619 -74 -682 -132 -45 -41 -16 -117
45 -117 15 0 79 13 142 29 141 36 320 60 503 68 l137 6 0 -225 0 -225 30 5
c39 6 60 -13 60 -52 0 -41 -16 -56 -57 -56 l-33 0 0 -76 c0 -74 1 -76 23 -70
12 3 27 6 32 6 6 0 9 14 7 33 -5 41 18 67 58 67 28 0 28 1 32 70 2 52 0 71
-11 75 -10 4 -11 15 -6 43 4 20 9 119 12 220 l4 182 82 0 c165 0 441 -38 595
-81 92 -26 129 -22 155 13 61 82 -61 141 -388 189 -77 11 -207 23 -290 27
l-150 7 -3 33 c-3 26 4 41 32 72 38 42 52 90 42 144 -18 93 -133 151 -221 112z"/>
<path d="M1756 3064 c-69 -22 -156 -110 -181 -183 -23 -69 -17 -169 14 -228
75 -147 252 -206 399 -132 106 52 162 144 162 264 0 205 -192 341 -394 279z
m130 -89 c3 -8 21 -23 41 -35 28 -16 34 -25 31 -48 -4 -33 -40 -42 -68 -17
-25 22 -65 16 -65 -10 0 -16 13 -24 58 -38 70 -23 101 -61 93 -116 -5 -35 -37
-77 -65 -86 -9 -3 -21 -15 -26 -27 -13 -29 -47 -30 -59 -2 -5 11 -26 30 -48
42 -32 19 -38 28 -38 56 0 46 23 53 71 21 44 -29 62 -31 79 -10 24 29 -3 55
-73 70 -41 9 -77 48 -77 85 0 62 128 163 146 115z"/>
<path d="M3016 3060 c-57 -23 -128 -87 -159 -145 -32 -58 -31 -202 0 -261 36
-67 70 -101 135 -133 51 -26 73 -31 133 -31 119 0 211 56 268 164 31 60 31
192 -1 257 -29 59 -83 113 -141 141 -64 31 -169 35 -235 8z m140 -85 c3 -8 21
-23 41 -35 28 -16 34 -25 31 -48 -4 -33 -40 -42 -68 -17 -25 22 -65 16 -65
-10 0 -15 12 -24 48 -35 90 -29 124 -82 93 -147 -9 -19 -29 -41 -44 -50 -16
-9 -33 -26 -38 -37 -12 -27 -46 -27 -58 0 -5 12 -25 30 -44 40 -35 19 -56 53
-46 78 10 27 37 27 76 1 43 -29 65 -29 82 -2 15 24 -18 52 -73 61 -47 7 -81
44 -81 88 0 21 13 42 48 78 48 49 87 64 98 35z"/>
<path d="M1447 2813 c-13 -13 -7 -92 13 -155 39 -128 150 -237 278 -274 88
-26 210 -16 295 23 132 63 225 193 235 333 5 68 4 69 -22 76 -37 9 -48 -5 -57
-73 -32 -276 -370 -396 -568 -202 -53 52 -90 126 -98 192 -3 29 -10 60 -15 70
-9 17 -48 24 -61 10z"/>
<path d="M2713 2804 c-3 -8 -3 -43 1 -77 13 -130 109 -261 235 -321 61 -29 74
-31 176 -31 105 0 114 2 178 33 87 43 155 110 196 194 28 56 33 79 35 140 1
70 0 73 -23 76 -33 5 -44 -10 -52 -75 -27 -232 -274 -365 -486 -262 -92 45
-169 152 -180 252 -3 29 -10 60 -15 70 -11 21 -57 23 -65 1z"/>
<path d="M2598 2743 c6 -2 18 -2 25 0 6 3 1 5 -13 5 -14 0 -19 -2 -12 -5z"/>
<path d="M2573 2523 l-23 -24 26 -9 c32 -12 34 -12 34 0 0 6 -10 10 -22 10
-20 0 -21 1 -3 20 26 28 15 31 -12 3z"/>
<path d="M2484 2498 c-3 -4 4 -8 15 -8 11 0 22 4 26 9 3 6 -4 9 -16 8 -11 -1
-23 -5 -25 -9z"/>
<path d="M2220 2331 c0 -11 5 -23 10 -26 6 -4 10 5 10 19 0 14 -4 26 -10 26
-5 0 -10 -9 -10 -19z"/>
<path d="M2300 2304 c0 -14 4 -23 10 -19 6 3 10 15 10 26 0 10 -4 19 -10 19
-5 0 -10 -12 -10 -26z"/>
<path d="M2171 2304 c0 -11 3 -14 6 -6 3 7 2 16 -1 19 -3 4 -6 -2 -5 -13z"/>
<path d="M2055 2201 c-71 -18 -104 -62 -112 -152 l-6 -59 552 0 551 0 0 58 c0
90 -46 148 -120 152 -106 6 -112 3 -154 -53 -28 -36 -42 -66 -45 -97 -6 -44
-7 -45 -43 -48 -36 -3 -38 -2 -38 27 0 17 -4 31 -10 31 -5 0 -10 -9 -10 -20 0
-15 -7 -20 -25 -20 -14 0 -25 6 -25 13 0 18 -132 10 -143 -9 -4 -8 -24 -14
-42 -14 -28 0 -35 4 -35 19 0 11 -4 23 -10 26 -5 3 -10 1 -10 -5 0 -21 -45 -6
-48 16 -5 32 -82 108 -130 127 -46 18 -51 19 -97 8z"/>
<path d="M1360 1660 l0 -230 85 0 c142 0 189 35 189 138 0 48 -3 57 -30 82
l-31 27 24 21 c18 16 23 31 23 71 0 90 -49 120 -197 121 l-63 0 0 -230z m151
150 c14 -8 19 -21 19 -50 0 -29 -5 -42 -19 -50 -42 -22 -51 -14 -51 50 0 64 9
72 51 50z m9 -190 c40 -40 16 -120 -37 -120 -22 0 -23 3 -23 70 0 63 2 70 20
70 11 0 29 -9 40 -20z"/>
<path d="M1795 1868 c-3 -13 -21 -108 -40 -213 -20 -104 -38 -198 -41 -207 -5
-16 2 -18 44 -18 l50 0 7 50 c7 49 8 50 41 50 33 0 33 -1 40 -50 l7 -50 47 0
c41 0 48 3 44 18 -2 9 -20 105 -39 212 -20 107 -38 203 -41 213 -4 13 -17 17
-59 17 -48 0 -55 -3 -60 -22z m79 -230 c5 -46 5 -48 -20 -48 -18 0 -24 4 -21
13 3 8 9 45 13 83 7 62 8 66 15 34 3 -19 9 -56 13 -82z"/>
<path d="M2090 1660 l0 -230 100 0 100 0 0 35 0 35 -50 0 -50 0 0 195 0 195
-50 0 -50 0 0 -230z"/>
<path d="M2445 1878 c-2 -7 -20 -98 -40 -203 -19 -104 -38 -202 -41 -217 -6
-28 -5 -28 45 -28 49 0 51 1 51 28 0 58 10 73 44 70 28 -3 32 -7 40 -50 l9
-48 44 0 c30 0 43 4 43 14 0 13 -47 275 -71 394 l-10 52 -55 0 c-35 0 -56 -5
-59 -12z m80 -260 c4 -25 1 -28 -21 -28 -24 0 -26 3 -21 33 3 17 9 55 13 82
l8 50 8 -55 c4 -30 10 -67 13 -82z"/>
<path d="M2740 1660 l0 -230 40 0 39 0 3 113 3 112 45 -112 c44 -111 45 -113
78 -113 l32 0 0 230 0 230 -40 0 -39 0 -3 -106 -3 -106 -39 93 c-48 114 -51
119 -87 119 l-29 0 0 -230z"/>
<path d="M3152 1877 c-47 -27 -57 -54 -61 -180 -4 -154 3 -203 38 -237 52 -52
161 -46 204 12 11 15 22 49 25 77 l5 51 -52 0 -51 0 0 -45 c0 -52 -27 -77 -54
-49 -13 12 -16 41 -16 153 0 141 5 161 41 161 20 0 29 -20 29 -66 l0 -34 51 0
52 0 -6 51 c-7 60 -28 96 -63 109 -35 14 -115 12 -142 -3z"/>
<path d="M3460 1660 l0 -230 100 0 100 0 0 35 0 35 -50 0 -50 0 0 64 0 65 38
3 c34 3 37 6 40 36 3 31 2 32 -37 32 l-41 0 0 60 0 60 50 0 50 0 0 35 0 35
-100 0 -100 0 0 -230z"/>
</g>
</svg>
